<svg width="41" height="51" viewBox="0 0 41 51" fill="none" xmlns="http://www.w3.org/2000/svg">
<path d="M38.1075 12.5315C38.0629 12.0033 37.618 11.5986 37.0879 11.6038H29.3385V8.6671C29.3385 3.88028 25.4578 0 20.6714 0C15.8845 0 12.0043 3.88028 12.0043 8.6671V11.6038H4.25486C3.72711 11.6058 3.28658 12.0065 3.2352 12.5315L0.563776 43.2439C0.442293 44.6678 0.923445 46.0778 1.89093 47.1306C2.85801 48.1829 4.2222 48.7815 5.65171 48.7803H35.701C37.1305 48.7815 38.4947 48.1829 39.4618 47.1306C40.4292 46.0778 40.9108 44.6678 40.7893 43.2439L38.1075 12.5315ZM14.0436 8.6671C14.0436 5.00669 17.011 2.03932 20.6714 2.03932C24.3318 2.03932 27.2992 5.00669 27.2992 8.6671V11.6038H14.0436V8.6671ZM37.9546 45.752C37.3778 46.3869 36.5585 46.7466 35.701 46.741H5.64136C4.78381 46.7414 3.96569 46.3817 3.38576 45.75C2.80623 45.1179 2.51825 44.2715 2.59274 43.4172L5.18251 13.6431H12.0043V20.0056C10.3644 20.5103 9.34041 22.1382 9.59572 23.8349C9.85064 25.5313 11.3084 26.786 13.0239 26.786C14.7394 26.786 16.1968 25.5313 16.4521 23.8349C16.707 22.1382 15.683 20.5103 14.0436 20.0056V13.6328H27.2992V20.0056C25.6593 20.5103 24.6353 22.1382 24.8906 23.8349C25.1455 25.5313 26.6033 26.786 28.3188 26.786C30.0343 26.786 31.4917 25.5313 31.747 23.8349C32.0019 22.1382 30.9779 20.5103 29.3385 20.0056V13.6328H36.1499L38.7396 43.4068C38.8233 44.2648 38.5377 45.1175 37.9546 45.752ZM12.871 21.9024C12.9725 21.9159 13.0753 21.9159 13.1769 21.9024C13.9309 21.9836 14.4901 22.6408 14.4495 23.398C14.4084 24.1556 13.7823 24.749 13.0239 24.749C12.2652 24.749 11.639 24.1556 11.5984 23.398C11.5578 22.6408 12.1166 21.9836 12.871 21.9024ZM28.1659 21.9024C28.2674 21.9159 28.3702 21.9159 28.4718 21.9024C29.2257 21.9836 29.785 22.6408 29.7443 23.398C29.7033 24.1556 29.0772 24.749 28.3188 24.749C27.56 24.749 26.9339 24.1556 26.8933 23.398C26.8527 22.6408 27.4115 21.9836 28.1659 21.9024Z" fill="black"/>
<path d="M20.9865 41.8577C20.1465 41.8577 19.3905 41.7137 18.7185 41.4257C18.0465 41.1257 17.5185 40.7057 17.1345 40.1657C16.7505 39.6257 16.5585 38.9957 16.5585 38.2757H18.7545C18.8025 38.8157 19.0125 39.2597 19.3845 39.6077C19.7685 39.9557 20.3025 40.1297 20.9865 40.1297C21.6945 40.1297 22.2465 39.9617 22.6425 39.6257C23.0385 39.2777 23.2365 38.8337 23.2365 38.2937C23.2365 37.8737 23.1105 37.5317 22.8585 37.2677C22.6185 37.0037 22.3125 36.7997 21.9405 36.6557C21.5805 36.5117 21.0765 36.3557 20.4285 36.1877C19.6125 35.9717 18.9465 35.7557 18.4305 35.5397C17.9265 35.3117 17.4945 34.9637 17.1345 34.4957C16.7745 34.0277 16.5945 33.4037 16.5945 32.6237C16.5945 31.9037 16.7745 31.2737 17.1345 30.7337C17.4945 30.1937 17.9985 29.7797 18.6465 29.4917C19.2945 29.2037 20.0445 29.0597 20.8965 29.0597C22.1085 29.0597 23.0985 29.3657 23.8665 29.9777C24.6465 30.5777 25.0785 31.4057 25.1625 32.4617H22.8945C22.8585 32.0057 22.6425 31.6157 22.2465 31.2917C21.8505 30.9677 21.3285 30.8057 20.6805 30.8057C20.0925 30.8057 19.6125 30.9557 19.2405 31.2557C18.8685 31.5557 18.6825 31.9877 18.6825 32.5517C18.6825 32.9357 18.7965 33.2537 19.0245 33.5057C19.2645 33.7457 19.5645 33.9377 19.9245 34.0817C20.2845 34.2257 20.7765 34.3817 21.4005 34.5497C22.2285 34.7777 22.9005 35.0057 23.4165 35.2337C23.9445 35.4617 24.3885 35.8157 24.7485 36.2957C25.1205 36.7637 25.3065 37.3937 25.3065 38.1857C25.3065 38.8217 25.1325 39.4217 24.7845 39.9857C24.4485 40.5497 23.9505 41.0057 23.2905 41.3537C22.6425 41.6897 21.8745 41.8577 20.9865 41.8577Z" fill="#29A867"/>
</svg>
