<svg width="29" height="29" viewBox="0 0 29 29" fill="none" xmlns="http://www.w3.org/2000/svg">
<g clip-path="url(#clip0)">
<path d="M25.1331 19.5266L28.115 5.63968H5.28247L8.60514 19.5266H25.1331Z" fill="#FFCA19"/>
<path d="M28.115 5.63968H5.28247L5.79364 7.85476H27.4334L28.115 5.63968Z" fill="#E9AE21"/>
<path d="M25.1327 20.4638H8.60475C8.17879 20.4638 7.83797 20.2082 7.75277 19.7822L4.43015 5.81005C4.34495 5.55444 4.43015 5.29889 4.60056 5.12848C4.77097 4.95807 5.02653 4.78772 5.28214 4.78772H28.1147C28.3703 4.78772 28.6258 4.87292 28.7962 5.12848C28.9666 5.29889 29.0518 5.63965 28.9666 5.89526L25.9848 19.697C25.8995 20.123 25.5587 20.4638 25.1327 20.4638ZM9.28627 18.6747H24.4512L27.0071 6.49163H6.38962L9.28627 18.6747Z" fill="black"/>
<path d="M5.28214 6.49158C4.85617 6.49158 4.51536 6.23597 4.43015 5.81L3.74863 3.33932H0.851984C0.340758 3.33932 0 2.91335 0 2.48739C0 2.06143 0.425963 1.63541 0.851984 1.63541H4.43021C4.85617 1.63541 5.19699 1.89102 5.28219 2.31698L6.13418 5.46925C6.21938 5.89521 5.96377 6.32123 5.53781 6.49158C5.45254 6.49158 5.36734 6.49158 5.28214 6.49158Z" fill="black"/>
<path d="M24.2804 24.8087H5.79289C4.08898 24.8087 2.72583 23.4456 2.72583 21.7416C2.72583 20.0377 4.08898 18.6746 5.79289 18.6746H24.2804C24.7916 18.6746 25.1324 19.1006 25.1324 19.5266C25.1324 19.9525 24.7064 20.3786 24.2804 20.3786H5.79289C5.02611 20.3786 4.42974 20.9749 4.42974 21.7417C4.42974 22.5085 5.02611 23.1049 5.79289 23.1049H24.2804C24.7916 23.1049 25.1324 23.5308 25.1324 23.9568C25.2176 24.4679 24.7916 24.8087 24.2804 24.8087Z" fill="black"/>
<path d="M22.3213 26.5127C23.6858 26.5127 24.792 25.4065 24.792 24.042C24.792 22.6775 23.6858 21.5713 22.3213 21.5713C20.9568 21.5713 19.8506 22.6775 19.8506 24.042C19.8506 25.4065 20.9568 26.5127 22.3213 26.5127Z" fill="#C0D0D6"/>
<path d="M22.3212 24.894C22.7918 24.894 23.1732 24.5125 23.1732 24.042C23.1732 23.5714 22.7918 23.19 22.3212 23.19C21.8507 23.19 21.4692 23.5714 21.4692 24.042C21.4692 24.5125 21.8507 24.894 22.3212 24.894Z" fill="#849DA9"/>
<path d="M22.3211 27.3646C20.4468 27.3646 18.9133 25.8311 18.9133 23.9568C18.9133 22.0825 20.4468 20.549 22.3211 20.549C24.1955 20.549 25.729 22.0825 25.729 23.9568C25.729 25.8311 24.1954 27.3646 22.3211 27.3646ZM22.3211 22.4232C21.384 22.4232 20.7024 23.19 20.7024 24.0419C20.7024 24.9791 21.4692 25.6606 22.3211 25.6606C23.1731 25.6606 23.9398 24.8938 23.9398 24.0419C23.9398 23.1048 23.1731 22.4232 22.3211 22.4232Z" fill="black"/>
<path d="M8.77537 26.5127C10.1399 26.5127 11.2461 25.4065 11.2461 24.042C11.2461 22.6775 10.1399 21.5713 8.77537 21.5713C7.41085 21.5713 6.30469 22.6775 6.30469 24.042C6.30469 25.4065 7.41085 26.5127 8.77537 26.5127Z" fill="#C0D0D6"/>
<path d="M8.77508 24.894C9.24562 24.894 9.62707 24.5125 9.62707 24.042C9.62707 23.5714 9.24562 23.19 8.77508 23.19C8.30454 23.19 7.9231 23.5714 7.9231 24.042C7.9231 24.5125 8.30454 24.894 8.77508 24.894Z" fill="#849DA9"/>
<path d="M8.77525 27.3646C6.90093 27.3646 5.36743 25.8311 5.36743 23.9568C5.36743 22.0825 6.90093 20.549 8.77525 20.549C10.6496 20.549 12.1831 22.0825 12.1831 23.9568C12.1831 25.8311 10.6496 27.3646 8.77525 27.3646ZM8.77525 22.4232C7.83812 22.4232 7.15654 23.19 7.15654 24.0419C7.15654 24.9791 7.92332 25.6606 8.77525 25.6606C9.62717 25.6606 10.394 24.8938 10.394 24.0419C10.394 23.1048 9.71244 22.4232 8.77525 22.4232Z" fill="black"/>
<path d="M12.7792 15.5223C12.2681 15.5223 11.9272 15.0964 11.9272 14.6704V9.64383C11.9272 9.13266 12.3532 8.79184 12.7792 8.79184C13.2904 8.79184 13.6312 9.2178 13.6312 9.64383V14.6704C13.6312 15.1816 13.2904 15.5223 12.7792 15.5223Z" fill="black"/>
<path d="M16.6986 15.5223C16.1875 15.5223 15.8467 15.0964 15.8467 14.6704V9.64383C15.8467 9.13266 16.2726 8.79184 16.6986 8.79184C17.2098 8.79184 17.5506 9.2178 17.5506 9.64383V14.6704C17.5506 15.1816 17.2098 15.5223 16.6986 15.5223Z" fill="black"/>
<path d="M20.6174 15.5223C20.1062 15.5223 19.7654 15.0964 19.7654 14.6704V9.64383C19.7654 9.13266 20.1913 8.79184 20.6174 8.79184C21.1285 8.79184 21.4693 9.2178 21.4693 9.64383V14.6704C21.4693 15.1816 21.1286 15.5223 20.6174 15.5223Z" fill="black"/>
</g>
<defs>
<clipPath id="clip0">
<rect width="29" height="29" fill="white"/>
</clipPath>
</defs>
</svg>
