<svg width="12" height="12" viewBox="0 0 12 12" fill="none" xmlns="http://www.w3.org/2000/svg">
<g clip-path="url(#clip0)">
<path d="M11.4583 7.24405V5.04782H10.0982L6.87879 2.07309C6.91495 1.97119 6.93481 1.86164 6.93481 1.74748C6.93481 1.209 6.49673 0.77092 5.95825 0.77092C5.41977 0.77092 4.98169 1.209 4.98169 1.74748C4.98169 1.86163 5.00156 1.97119 5.03771 2.07309L1.81831 5.04782H0.458252V7.24406H0.842753L2.17872 11.1458H9.73776L11.0737 7.24406L11.4583 7.24405ZM7.74714 8.41209H6.34382V7.25469H7.86142L7.74714 8.41209ZM5.57269 10.3747H4.36316L4.24551 9.18323H5.57269V10.3747ZM4.16937 8.41209L4.05508 7.25468H5.57269V8.41209H4.16937ZM6.16368 1.74748C6.16368 1.80703 6.13806 1.86058 6.09745 1.89813C6.06081 1.93201 6.01198 1.95291 5.95825 1.95291C5.90452 1.95291 5.8557 1.93201 5.81905 1.89813C5.77844 1.86057 5.75282 1.80703 5.75282 1.74748C5.75282 1.68793 5.77844 1.63439 5.81905 1.59684C5.85569 1.56295 5.90452 1.54205 5.95825 1.54205C6.01198 1.54205 6.0608 1.56295 6.09745 1.59684C6.13806 1.6344 6.16368 1.68793 6.16368 1.74748ZM5.56117 2.63934C5.68258 2.69362 5.81689 2.72405 5.95825 2.72405C6.09962 2.72405 6.23392 2.69362 6.35533 2.63934L8.96192 5.04784H2.95459L5.56117 2.63934ZM1.22939 5.81896H10.6871V6.47292H1.22939V5.81896ZM3.28021 7.25469L3.39449 8.4121H2.05779L1.66149 7.25469H3.28021ZM2.72977 10.3747L2.32182 9.18323H3.47064L3.58828 10.3747H2.72977ZM6.34382 9.18322H7.67099L7.55333 10.3746H6.34382V9.18322ZM9.18673 10.3747H8.32821L8.44585 9.18323H9.59467L9.18673 10.3747ZM9.85872 8.41209H8.52201L8.6363 7.25468H10.255L9.85872 8.41209Z" fill="#FF7158"/>
</g>
<defs>
<clipPath id="clip0">
<rect width="11" height="11" fill="white" transform="translate(0.458252 0.458344)"/>
</clipPath>
</defs>
</svg>
