<svg width="36" height="31" viewBox="0 0 36 31" fill="none" xmlns="http://www.w3.org/2000/svg">
<g clip-path="url(#clip0)">
<path d="M25.133 21.5266L28.1149 7.63966H5.28235L8.60502 21.5266H25.133Z" fill="#FFCA19"/>
<path d="M28.1149 7.63966H5.28235L5.79352 9.85474H27.4333L28.1149 7.63966Z" fill="#E9AE21"/>
<path d="M25.1328 22.4638H8.60484C8.17888 22.4638 7.83806 22.2082 7.75286 21.7822L4.43025 7.81004C4.34504 7.55443 4.43025 7.29887 4.60065 7.12846C4.77106 6.95805 5.02662 6.7877 5.28223 6.7877H28.1147C28.3704 6.7877 28.6259 6.87291 28.7963 7.12846C28.9667 7.29887 29.0519 7.63963 28.9667 7.89524L25.9849 21.697C25.8996 22.1229 25.5588 22.4638 25.1328 22.4638ZM9.28636 20.6747H24.4513L27.0071 8.49161H6.38971L9.28636 20.6747Z" fill="black"/>
<path d="M5.28214 8.4916C4.85617 8.4916 4.51536 8.23598 4.43015 7.81002L3.74863 5.33933H0.851984C0.340758 5.33933 0 4.91337 0 4.48741C0 4.06144 0.425963 3.63542 0.851984 3.63542H4.43021C4.85617 3.63542 5.19699 3.89103 5.28219 4.317L6.13418 7.46926C6.21938 7.89522 5.96377 8.32125 5.53781 8.4916C5.45254 8.4916 5.36734 8.4916 5.28214 8.4916Z" fill="black"/>
<path d="M24.2805 26.8087H5.79298C4.08907 26.8087 2.72592 25.4456 2.72592 23.7416C2.72592 22.0377 4.08907 20.6746 5.79298 20.6746H24.2805C24.7917 20.6746 25.1325 21.1006 25.1325 21.5266C25.1325 21.9525 24.7065 22.3786 24.2805 22.3786H5.79298C5.0262 22.3786 4.42983 22.9749 4.42983 23.7417C4.42983 24.5085 5.0262 25.1049 5.79298 25.1049H24.2805C24.7917 25.1049 25.1325 25.5308 25.1325 25.9568C25.2177 26.4679 24.7917 26.8087 24.2805 26.8087Z" fill="black"/>
<path d="M22.3212 28.5127C23.6857 28.5127 24.7919 27.4065 24.7919 26.042C24.7919 24.6774 23.6857 23.5713 22.3212 23.5713C20.9567 23.5713 19.8505 24.6774 19.8505 26.042C19.8505 27.4065 20.9567 28.5127 22.3212 28.5127Z" fill="#C0D0D6"/>
<path d="M22.3213 26.8939C22.7919 26.8939 23.1733 26.5125 23.1733 26.042C23.1733 25.5714 22.7919 25.19 22.3213 25.19C21.8508 25.19 21.4693 25.5714 21.4693 26.042C21.4693 26.5125 21.8508 26.8939 22.3213 26.8939Z" fill="#849DA9"/>
<path d="M22.3212 29.3646C20.4469 29.3646 18.9134 27.8311 18.9134 25.9568C18.9134 24.0825 20.4469 22.549 22.3212 22.549C24.1955 22.549 25.729 24.0825 25.729 25.9568C25.729 27.8311 24.1954 29.3646 22.3212 29.3646ZM22.3212 24.4232C21.384 24.4232 20.7025 25.19 20.7025 26.0419C20.7025 26.9791 21.4693 27.6606 22.3212 27.6606C23.1731 27.6606 23.9399 26.8938 23.9399 26.0419C23.9399 25.1048 23.1731 24.4232 22.3212 24.4232Z" fill="black"/>
<path d="M8.77534 28.5127C10.1399 28.5127 11.246 27.4065 11.246 26.042C11.246 24.6774 10.1399 23.5713 8.77534 23.5713C7.41082 23.5713 6.30466 24.6774 6.30466 26.042C6.30466 27.4065 7.41082 28.5127 8.77534 28.5127Z" fill="#C0D0D6"/>
<path d="M8.77511 26.8939C9.24565 26.8939 9.6271 26.5125 9.6271 26.042C9.6271 25.5714 9.24565 25.19 8.77511 25.19C8.30457 25.19 7.92313 25.5714 7.92313 26.042C7.92313 26.5125 8.30457 26.8939 8.77511 26.8939Z" fill="#849DA9"/>
<path d="M8.77528 29.3646C6.90096 29.3646 5.36746 27.8311 5.36746 25.9568C5.36746 24.0825 6.90096 22.549 8.77528 22.549C10.6496 22.549 12.1831 24.0825 12.1831 25.9568C12.1831 27.8311 10.6496 29.3646 8.77528 29.3646ZM8.77528 24.4232C7.83815 24.4232 7.15658 25.19 7.15658 26.0419C7.15658 26.9791 7.92335 27.6606 8.77528 27.6606C9.62721 27.6606 10.394 26.8938 10.394 26.0419C10.394 25.1048 9.71247 24.4232 8.77528 24.4232Z" fill="black"/>
<path d="M12.7793 17.5223C12.2681 17.5223 11.9273 17.0964 11.9273 16.6704V11.6438C11.9273 11.1327 12.3533 10.7918 12.7793 10.7918C13.2905 10.7918 13.6313 11.2178 13.6313 11.6438V16.6704C13.6312 17.1816 13.2905 17.5223 12.7793 17.5223Z" fill="black"/>
<path d="M16.6986 17.5223C16.1875 17.5223 15.8466 17.0964 15.8466 16.6704V11.6438C15.8466 11.1327 16.2726 10.7918 16.6986 10.7918C17.2098 10.7918 17.5506 11.2178 17.5506 11.6438V16.6704C17.5506 17.1816 17.2098 17.5223 16.6986 17.5223Z" fill="black"/>
<path d="M20.6173 17.5223C20.1062 17.5223 19.7654 17.0964 19.7654 16.6704V11.6438C19.7654 11.1327 20.1913 10.7918 20.6173 10.7918C21.1285 10.7918 21.4693 11.2178 21.4693 11.6438V16.6704C21.4693 17.1816 21.1286 17.5223 20.6173 17.5223Z" fill="black"/>
</g>
<circle cx="29" cy="7" r="7" fill="#29A867"/>
<path d="M31.1877 4.79299L28.7937 10.4H27.5157L29.9277 4.93699H26.8497V3.85699H31.1877V4.79299Z" fill="white"/>
<defs>
<clipPath id="clip0">
<rect width="29" height="29" fill="white" transform="translate(0 2)"/>
</clipPath>
</defs>
</svg>
